<svg xmlns="http://www.w3.org/2000/svg" fill="none" viewBox="0 0 130 40">
  <g clip-path="url(#JAMuF5jBT1qa)">
    <path d="M37.266 28.35c-.204-.488-.395-1-.599-1.438l-.943-2.087-.038-.038c-2.804-6-5.8-12.1-8.973-18.1l-.127-.25c-.319-.587-.637-1.237-.969-1.837-.408-.713-.803-1.475-1.453-2.2A6.738 6.738 0 0021.83.61a6.866 6.866 0 00-5.782 0 6.738 6.738 0 00-2.335 1.79c-.599.725-1.045 1.487-1.452 2.2a37.14 37.14 0 01-.97 1.875l-.127.25c-3.122 6-6.168 12.1-8.972 18.1l-.077.075c-.28.65-.611 1.325-.93 2.05-.204.437-.408.912-.612 1.437a8.348 8.348 0 00-.51 4.328 8.417 8.417 0 001.743 4.008 8.651 8.651 0 003.54 2.633 8.823 8.823 0 004.404.569 10.82 10.82 0 004.053-1.375c1.656-.913 3.25-2.238 5.034-4.15 1.784 1.912 3.416 3.237 5.034 4.162 1.557.896 3.32 1.39 5.124 1.438a8.756 8.756 0 005.692-2.064 8.444 8.444 0 002.91-5.224 7.29 7.29 0 00-.33-4.375v.013zm-18.302 2.075c-2.192-2.75-3.62-5.275-4.103-7.438a6.378 6.378 0 01-.128-2.45c.09-.637.331-1.2.663-1.675.764-1.087 2.103-1.762 3.568-1.762a4.274 4.274 0 012.01.433 4.184 4.184 0 011.559 1.317c.331.5.573 1.05.65 1.687.128.725.076 1.563-.127 2.45-.485 2.125-1.912 4.675-4.092 7.438zm16.238 1.85a5.89 5.89 0 01-1.211 2.827 6.055 6.055 0 01-2.485 1.86c-.97.4-2.04.513-3.085.4-1.02-.125-2.039-.45-3.084-1.05a19.837 19.837 0 01-4.627-3.875c2.677-3.25 4.296-6.212 4.907-8.85a9.618 9.618 0 00.204-3.412 6.836 6.836 0 00-1.096-2.75 6.796 6.796 0 00-2.499-2.126 6.943 6.943 0 00-3.223-.724c-2.358 0-4.461 1.075-5.736 2.837a6.402 6.402 0 00-1.083 2.763 8.074 8.074 0 00.204 3.412c.612 2.638 2.268 5.638 4.907 8.875a18.17 18.17 0 01-4.627 3.9c-1.057.6-2.064.913-3.084 1.038a6.154 6.154 0 01-4.457-1.176 5.928 5.928 0 01-2.323-3.912c-.128-1-.039-2 .37-3.125.127-.4.318-.8.522-1.275.28-.65.612-1.325.93-2l.051-.087A405.612 405.612 0 0113.56 7.812l.128-.25c.319-.6.637-1.237.968-1.837.332-.638.689-1.25 1.148-1.75a4.223 4.223 0 011.453-1.096 4.301 4.301 0 013.58 0 4.22 4.22 0 011.454 1.096c.446.5.816 1.112 1.147 1.75.319.6.637 1.25.969 1.837l.127.25a491.542 491.542 0 018.922 18.013l.038.037c.331.65.612 1.375.93 2 .204.488.408.875.535 1.288.243 1.125.37 2.125.243 3.125zm17.74-2.125a6.504 6.504 0 01-2.782-.581 6.385 6.385 0 01-2.252-1.707 8.092 8.092 0 01-2.039-5.6 8.6 8.6 0 012.116-5.725 6.744 6.744 0 012.337-1.728 6.867 6.867 0 012.863-.597 5.568 5.568 0 012.674.602 5.446 5.446 0 012.042 1.798l.127-1.962h3.722v15.1h-3.735l-.127-2.2a5.72 5.72 0 01-2.128 1.93 5.853 5.853 0 01-2.817.67zm.97-3.6c.739 0 1.389-.2 2-.563a4.72 4.72 0 001.377-1.562c.319-.638.484-1.4.484-2.25a4.204 4.204 0 00-.425-2.143 4.3 4.3 0 00-1.448-1.657 3.814 3.814 0 00-3.977 0c-.56.4-1.02.925-1.376 1.562a4.932 4.932 0 00-.485 2.25c-.05.738.097 1.477.426 2.143a4.299 4.299 0 001.448 1.657 3.738 3.738 0 001.975.563zm14.21-15.975c0 .437-.076.837-.28 1.162a2.37 2.37 0 01-.854.8c-.37.2-.765.275-1.173.275-.407 0-.815-.075-1.185-.275a2.326 2.326 0 01-.854-.8 2.24 2.24 0 01-.28-1.162c0-.45.089-.85.28-1.163.204-.375.497-.6.854-.8.37-.2.765-.287 1.185-.287a2.38 2.38 0 011.165.273c.357.189.659.465.875.802.185.364.277.768.267 1.175zM63.79 29.7V14.625h4.053v15.1h-4.066l.013-.025zm14.886-11.125v.05c-.191-.088-.446-.125-.637-.163-.255-.05-.459-.05-.701-.05-1.134 0-1.988.325-2.55 1-.61.688-.891 1.65-.891 2.888v7.412H69.83v-15.1h3.734l.128 2.288c.408-.8.892-1.4 1.58-1.85a4.01 4.01 0 012.307-.625c.293 0 .574.025.816.075.127.037.204.037.28.075v4zM80.307 29.7V8.425h4.052v8.125a6.396 6.396 0 012.04-1.725 6.51 6.51 0 014.164-.5 6.42 6.42 0 013.585 2.137 8.092 8.092 0 012.039 5.613A8.6 8.6 0 0194.07 27.8a6.746 6.746 0 01-2.337 1.728 6.868 6.868 0 01-2.863.597 5.57 5.57 0 01-2.674-.602 5.444 5.444 0 01-2.041-1.798l-.128 1.962-3.722.038V29.7zm7.838-3.15c.726 0 1.376-.2 1.988-.563a4.72 4.72 0 001.377-1.562c.33-.638.484-1.4.484-2.25 0-.838-.153-1.6-.484-2.238a4.714 4.714 0 00-1.377-1.562 3.814 3.814 0 00-3.976 0c-.574.4-1.02.925-1.39 1.562a4.932 4.932 0 00-.484 2.25c-.05.738.097 1.477.425 2.143a4.299 4.299 0 001.449 1.657 3.75 3.75 0 001.988.563zm9.571 3.162v-15.1h3.735l.127 1.963a5.007 5.007 0 011.928-1.784 5.13 5.13 0 012.584-.579 5.302 5.302 0 012.903.805 5.156 5.156 0 011.966 2.245c.446.95.688 2.125.688 3.438v9.05h-4.066v-8.525c0-1.05-.242-1.875-.726-2.488-.485-.6-1.147-.925-1.989-.925-.611 0-1.147.125-1.618.4-.446.288-.816.65-1.096 1.163a3.32 3.32 0 00-.408 1.687v8.65h-4.028zm15.957 0v-21.3h4.066v8.125a5.928 5.928 0 012.092-1.732 6.047 6.047 0 012.662-.63 6.506 6.506 0 012.783.58c.871.396 1.641.98 2.251 1.707a8.114 8.114 0 012.027 5.6 8.59 8.59 0 01-2.116 5.725 6.75 6.75 0 01-2.337 1.729 6.868 6.868 0 01-2.863.596 5.57 5.57 0 01-2.674-.602 5.446 5.446 0 01-2.042-1.798l-.114 1.963-3.735.037zm7.877-3.162c.739 0 1.389-.2 1.988-.563.573-.4 1.02-.925 1.389-1.562.319-.638.484-1.4.484-2.25a4.195 4.195 0 00-.425-2.143 4.293 4.293 0 00-1.448-1.657 3.818 3.818 0 00-3.977 0c-.56.4-1.019.925-1.376 1.562a4.453 4.453 0 00-.484 2.25c-.05.738.097 1.477.425 2.143a4.294 4.294 0 001.448 1.657 3.642 3.642 0 001.976.563z" fill="#FF385C"/>
  </g>
  <defs>
    <clipPath id="JAMuF5jBT1qa">
      <path fill="#fff" d="M0 0h130v40H0z"/>
    </clipPath>
  </defs>
</svg>
