<svg xmlns="http://www.w3.org/2000/svg" fill="none" viewBox="0 0 140 40">
  <g clip-path="url(#2HTthmgSMSsa)">
    <path d="M118.612 12.98V8.284a3.598 3.598 0 001.503-1.327 3.636 3.636 0 00.565-1.931v-.109c0-.959-.378-1.878-1.05-2.556a3.574 3.574 0 00-2.537-1.06h-.107a3.57 3.57 0 00-2.537 1.06 3.633 3.633 0 00-1.05 2.556v.109c.003.684.199 1.354.565 1.931a3.598 3.598 0 001.503 1.327v4.696a10.115 10.115 0 00-4.83 2.143L97.862 5.093c.09-.33.139-.672.143-1.015a4.097 4.097 0 00-.677-2.264A4.049 4.049 0 0095.517.31a4.012 4.012 0 00-4.406.876 4.103 4.103 0 00-.882 4.439 4.067 4.067 0 001.486 1.83 4.019 4.019 0 002.244.69 3.974 3.974 0 001.99-.545l12.581 9.865a10.331 10.331 0 00.155 11.57l-3.826 3.857a3.26 3.26 0 00-.956-.157c-.657 0-1.298.197-1.844.565a3.363 3.363 0 00-.501 5.146 3.294 3.294 0 003.616.726 3.328 3.328 0 001.49-1.231 3.36 3.36 0 00.56-1.858 3.32 3.32 0 00-.155-.964l3.785-3.816a10.131 10.131 0 008.807 1.8 10.175 10.175 0 004.083-2.162 10.275 10.275 0 002.722-3.753 10.36 10.36 0 00-.472-9.045 10.254 10.254 0 00-3.097-3.444 10.153 10.153 0 00-4.285-1.72zm-1.569 15.44a5.21 5.21 0 01-2.908-.891 5.27 5.27 0 01-1.927-2.37 5.319 5.319 0 01-.296-3.049 5.285 5.285 0 011.434-2.702 5.222 5.222 0 012.68-1.443 5.198 5.198 0 013.025.3 5.242 5.242 0 012.35 1.943 5.31 5.31 0 01-.65 6.664 5.216 5.216 0 01-3.703 1.546" fill="#FF7A59"/>
    <path d="M15.161 6.621v11.283H4.881V6.621H0v26.934h4.88V22.638h10.281v10.917h4.881V6.62h-4.88zm20.502 18.227c0 1.08-.426 2.115-1.183 2.878a4.022 4.022 0 01-2.855 1.192 4.022 4.022 0 01-2.855-1.192 4.086 4.086 0 01-1.183-2.878V13.312h-4.63v11.536c0 2.315.912 4.535 2.536 6.172a8.624 8.624 0 006.123 2.556c2.297 0 4.5-.92 6.123-2.556a8.763 8.763 0 002.536-6.172V13.312h-4.612v11.536zM69.964 14.5c0-2.364 1.552-3.114 3.253-3.114 1.37 0 3.18 1.051 4.364 2.327l3.032-3.602c-1.514-2.063-4.584-3.49-7.097-3.49-5.022 0-8.655 2.965-8.655 7.88 0 9.118 11.058 6.226 11.058 11.328 0 1.574-1.516 2.965-3.252 2.965-2.739 0-3.626-1.35-4.883-2.777l-3.365 3.527c2.152 2.663 4.806 4.015 7.987 4.015 4.77 0 8.609-3 8.609-7.691 0-10.124-11.058-6.978-11.058-11.367m68.414 14.751c-2.735 0-3.512-1.193-3.512-3.02v-8.087h4.251v-4.098h-4.251V8.641l-4.695 2.123v16.473c0 4.213 2.884 6.337 6.84 6.337a9.42 9.42 0 001.851-.15l1.145-4.25c-.517.037-1.11.073-1.629.073m-85.086-15.8c-2.294 0-3.894.67-5.44 2.2V6.784h-4.638v16.431c0 6.151 4.412 10.365 9.37 10.365 5.5 0 10.337-4.288 10.337-10.064 0-5.703-4.452-10.065-9.63-10.065v-.003zm-.03 15.429a5.232 5.232 0 01-2.922-.894 5.294 5.294 0 01-1.938-2.38 5.342 5.342 0 01-.3-3.063 5.316 5.316 0 011.44-2.716 5.248 5.248 0 012.694-1.45 5.223 5.223 0 013.04.301 5.27 5.27 0 012.361 1.953 5.333 5.333 0 01-.654 6.696 5.24 5.24 0 01-3.72 1.553zm50.377-5.606c0-5.785-4.828-10.064-10.338-10.064-4.957 0-9.37 4.214-9.37 10.365v16.441h4.638v-8.877c1.544 1.528 3.147 2.2 5.438 2.2 5.177 0 9.63-4.36 9.63-10.065h.002zm-4.39-.058a5.333 5.333 0 01-.887 2.946 5.27 5.27 0 01-2.361 1.953 5.222 5.222 0 01-3.04.302 5.248 5.248 0 01-2.694-1.451 5.316 5.316 0 01-1.44-2.716 5.342 5.342 0 01.3-3.063 5.294 5.294 0 011.938-2.38 5.231 5.231 0 016.643.66 5.324 5.324 0 011.54 3.749z" fill="#33475B"/>
  </g>
  <defs>
    <clipPath id="2HTthmgSMSsa">
      <path fill="#fff" d="M0 0h140v40H0z"/>
    </clipPath>
  </defs>
</svg>
