<svg xmlns="http://www.w3.org/2000/svg" fill="none" viewBox="0 0 143 120">
  <g opacity=".3" clip-path="url(#4PFkHYvWyeWa)">
    <path fill-rule="evenodd" clip-rule="evenodd" d="M142.373 18.742c-21.324 10.412-31.986 22.646-31.986 36.703 9.089 1.04 16.605 4.728 22.547 11.063 5.943 6.334 8.915 13.666 8.915 21.995 0 8.85-2.884 16.313-8.652 22.386-5.769 6.074-13.022 9.111-21.762 9.111-9.788 0-18.265-3.948-25.431-11.844-7.167-7.896-10.75-17.484-10.75-28.763 0-33.84 19.052-60.304 57.156-79.393l9.963 18.742zm-75.254 0C45.619 29.154 34.87 41.388 34.87 55.445c9.264 1.04 16.867 4.728 22.81 11.063 5.943 6.334 8.914 13.666 8.914 21.995 0 8.85-2.927 16.313-8.783 22.386C51.956 116.963 44.658 120 35.92 120c-9.788 0-18.222-3.948-25.3-11.844C3.538 100.26 0 90.672 0 79.393 0 45.553 18.964 19.089 56.894 0l10.225 18.742z" fill="#2EC5CE"/>
  </g>
  <defs>
    <clipPath id="4PFkHYvWyeWa">
      <path fill="#fff" d="M0 0h143v120H0z"/>
    </clipPath>
  </defs>
</svg>
